<?xml version="1.0" standalone="no"?>
<!DOCTYPE svg PUBLIC "-//W3C//DTD SVG 20010904//EN"
 "http://www.w3.org/TR/2001/REC-SVG-20010904/DTD/svg10.dtd">
<svg version="1.0" xmlns="http://www.w3.org/2000/svg"
 width="300.000000pt" height="300.000000pt" viewBox="0 0 300.000000 300.000000"
 preserveAspectRatio="xMidYMid meet">
<metadata>
Created by potrace 1.11, written by Peter Selinger 2001-2013
</metadata>
<g transform="translate(0.000000,300.000000) scale(0.100000,-0.100000)"
fill="#000000" stroke="none">
<path d="M21 2248 c39 -99 270 -673 300 -743 78 -186 291 -721 292 -732 0 -13
7 -13 432 -12 149 0 313 0 365 -1 120 -2 98 -2 223 0 59 1 112 -2 117 -5 6 -3
10 -1 10 5 0 6 4 9 9 6 5 -3 78 -6 162 -6 354 -2 460 0 454 9 -5 9 0 24 31 96
7 17 78 194 159 395 80 201 152 379 159 395 8 17 60 145 116 285 56 140 111
275 121 299 11 24 17 46 15 48 -3 4 -420 -261 -1013 -643 l-82 -53 -38 67
c-21 37 -43 76 -50 87 -7 11 -16 27 -20 35 -6 13 -66 118 -108 190 -8 14 -50
87 -92 162 -43 76 -81 138 -85 138 -4 0 -28 -37 -54 -82 -25 -46 -54 -97 -64
-114 -10 -18 -73 -128 -140 -245 -68 -118 -127 -219 -132 -225 -6 -9 -27 0
-71 30 -66 44 -190 124 -220 141 -21 12 -633 406 -697 448 -25 16 -62 40 -82
53 l-38 24 21 -52z m1512 -200 c16 -29 36 -66 46 -83 53 -87 241 -419 239
-421 -2 -1 -74 -47 -161 -103 -91 -59 -163 -99 -170 -95 -82 48 -307 198 -307
205 0 5 10 26 23 47 13 20 83 142 156 270 73 127 136 232 140 232 4 0 19 -24
34 -52z m-1238 -37 c50 -31 92 -58 95 -61 3 -3 39 -27 80 -53 41 -26 84 -53
94 -60 11 -6 107 -69 215 -138 108 -69 215 -138 239 -153 l43 -27 -24 -42
c-13 -23 -99 -174 -192 -336 l-168 -293 -64 158 c-35 88 -68 168 -73 179 -4
11 -27 67 -50 125 -22 58 -45 114 -50 125 -5 11 -19 45 -30 75 -11 30 -25 64
-30 75 -5 11 -51 121 -101 245 -50 124 -93 231 -96 239 -7 17 -11 19 112 -58z
m2497 7 c-22 -48 -69 -165 -77 -188 -1 -3 -5 -14 -10 -25 -5 -11 -28 -69 -53
-130 -24 -60 -50 -123 -57 -140 -7 -16 -29 -70 -49 -120 -68 -175 -214 -533
-222 -548 -7 -11 -56 67 -184 291 -185 324 -205 361 -199 366 2 2 55 36 118
76 63 39 144 91 180 115 36 23 163 104 281 180 118 75 231 148 250 161 42 29
47 20 22 -38z m-1499 -648 c64 -41 117 -78 117 -81 0 -4 -44 -35 -97 -69 -54
-35 -120 -77 -148 -95 -319 -207 -365 -234 -351 -207 8 15 71 126 141 247 70
121 137 236 147 255 11 19 22 38 25 43 5 9 24 -1 166 -93z m588 73 c7 -16 31
-56 51 -91 21 -34 38 -64 38 -66 0 -2 36 -65 80 -140 44 -75 80 -138 80 -141
0 -2 14 -26 30 -52 17 -26 30 -50 30 -55 0 -4 -19 5 -42 21 -42 29 -176 115
-435 281 -73 47 -133 87 -132 90 0 6 271 179 280 180 3 0 12 -12 20 -27z
m-101 -386 c146 -94 279 -179 295 -189 17 -10 28 -19 25 -19 -3 -1 -276 -2
-608 -3 -501 -1 -600 1 -585 12 17 13 366 237 400 257 9 6 22 14 27 18 44 34
163 103 171 99 6 -3 129 -82 275 -175z"/>
</g>
</svg>
